<?xml version="1.0" standalone="no"?>
<!DOCTYPE svg PUBLIC "-//W3C//DTD SVG 20010904//EN"
 "http://www.w3.org/TR/2001/REC-SVG-20010904/DTD/svg10.dtd">
<svg version="1.0" xmlns="http://www.w3.org/2000/svg"
 width="700.000000pt" height="700.000000pt" viewBox="0 0 700.000000 700.000000"
 preserveAspectRatio="xMidYMid meet">
<metadata>
Created by potrace 1.14, written by Peter Selinger 2001-2017
</metadata>
<g transform="translate(0.000000,700.000000) scale(0.100000,-0.100000)"
fill="#000000" stroke="none">
<path d="M3480 6532 c-70 -9 -110 -35 -275 -173 -11 -10 -137 -113 -280 -229
-143 -117 -294 -240 -335 -274 -41 -34 -97 -80 -125 -102 -27 -21 -52 -41 -55
-44 -3 -3 -30 -25 -60 -50 -30 -25 -57 -47 -60 -50 -3 -3 -25 -21 -50 -40 -25
-19 -47 -37 -50 -40 -3 -3 -54 -46 -115 -95 -60 -50 -119 -98 -130 -107 -41
-34 -771 -631 -803 -656 -18 -14 -112 -92 -210 -172 -193 -159 -220 -192 -229
-283 -10 -95 52 -195 146 -234 25 -11 77 -16 176 -17 l140 -1 1 -1320 1 -1320
22 -64 c57 -166 195 -289 356 -318 58 -11 3885 -9 3929 1 57 14 152 64 198
105 61 55 111 131 139 212 l22 64 0 1320 1 1320 141 2 c123 1 146 4 188 23
118 56 167 189 113 307 -19 40 -45 68 -118 128 -122 101 -157 130 -193 159
-16 13 -52 43 -80 65 l-50 41 -1 478 c-1 458 -2 479 -21 523 -25 56 -64 95
-123 122 -39 18 -65 20 -210 20 -184 0 -209 -7 -273 -67 -65 -60 -70 -80 -72
-291 -2 -104 -7 -191 -11 -192 -5 -2 -74 50 -153 115 -79 64 -172 140 -207
168 -34 28 -82 67 -106 87 -76 63 -233 191 -272 222 -21 17 -52 42 -70 57
-156 132 -687 562 -707 573 -34 18 -97 32 -129 27z m1651 -3044 c3 -43 3
-1817 1 -1834 -4 -20 -7 -20 -468 -20 l-464 0 0 933 0 933 465 0 c365 0 465
-3 466 -12z"/>
</g>
</svg>
